<svg id="Layer_1" data-name="Layer 1" xmlns="http://www.w3.org/2000/svg" viewBox="0 0 16 16"><defs><style>.cls-1,.cls-4,.cls-7{fill:none;}.cls-1,.cls-2{stroke:#0a91ab;}.cls-1,.cls-2,.cls-3,.cls-4,.cls-5,.cls-6,.cls-7,.cls-8,.cls-9{stroke-miterlimit:10;stroke-width:0.13px;}.cls-2{fill:#0a91ab;}.cls-3{fill:#64ccc5;}.cls-3,.cls-6,.cls-9{stroke:#fff;}.cls-4,.cls-5{stroke:#f66b0e;}.cls-5{fill:#f66b0e;}.cls-6{fill:#ffc045;}.cls-7{stroke:#0f4c75;}.cls-8{fill:#3282b8;stroke:#3282b8;}.cls-9{fill:#00c4ff;}</style></defs><polygon class="cls-1" points="10.5 11.98 10.98 11.07 14.94 11.07 15.42 11.98 10.5 11.98"/><polygon class="cls-2" points="10.5 11.98 11.13 10.79 15.09 10.79 15.57 11.69 15.42 11.98 10.5 11.98"/><polygon class="cls-3" points="10.65 11.69 11.13 10.79 15.09 10.79 15.57 11.69 10.65 11.69"/><polygon class="cls-4" points="11.46 6.35 12.46 6.35 13.49 8.29 12.46 10.23 11.46 10.23 12.49 8.29 11.46 6.35"/><polygon class="cls-5" points="11.46 10.23 12.49 8.29 11.46 6.35 11.61 6.06 12.61 6.06 13.65 8 12.46 10.23 11.46 10.23"/><polygon class="cls-6" points="11.61 6.06 12.61 6.06 13.65 8 12.61 9.94 11.61 9.94 12.64 8 11.61 6.06"/><polygon class="cls-7" points="6.33 6.13 4.37 6.13 7.52 11.98 9.49 11.98 11.46 8.29 9.49 4.6 7.52 4.6 9.49 8.29 8.48 10.17 6.33 6.13"/><polygon class="cls-8" points="4.37 6.13 4.52 5.84 6.48 5.84 8.63 9.88 9.49 8.29 7.52 4.6 7.67 4.31 9.64 4.31 11.61 8 9.49 11.98 7.52 11.98 4.37 6.13"/><polygon class="cls-9" points="6.48 5.84 4.52 5.84 7.67 11.69 9.64 11.69 11.61 8 9.64 4.31 7.67 4.31 9.64 8 8.63 9.88 6.48 5.84"/><polygon class="cls-4" points="3.54 4.6 4.12 5.68 6.09 5.68 5.51 4.6 3.54 4.6"/><polygon class="cls-5" points="3.54 4.6 3.69 4.31 5.66 4.31 6.24 5.39 6.09 5.68 4.12 5.68 3.54 4.6"/><polygon class="cls-6" points="3.69 4.31 4.28 5.39 6.24 5.39 5.66 4.31 3.69 4.31"/><polygon class="cls-4" points="4.52 11.98 0.58 4.6 2.55 4.6 6.49 11.98 4.52 11.98"/><polygon class="cls-5" points="0.58 4.6 0.73 4.31 2.7 4.31 6.64 11.69 6.49 11.98 4.52 11.98 0.58 4.6"/><polygon class="cls-6" points="4.67 11.69 0.73 4.31 2.7 4.31 6.64 11.69 4.67 11.69"/></svg>